<?xml version="1.0" encoding="utf-8"?>
<!-- Generator: Adobe Illustrator 18.0.0, SVG Export Plug-In . SVG Version: 6.00 Build 0)  -->
<!DOCTYPE svg PUBLIC "-//W3C//DTD SVG 1.1//EN" "http://www.w3.org/Graphics/SVG/1.1/DTD/svg11.dtd">
<svg version="1.1" id="Layer_1" xmlns="http://www.w3.org/2000/svg" xmlns:xlink="http://www.w3.org/1999/xlink" x="0px" y="0px"
	 viewBox="0 0 1993.4 565.6" style="enable-background:new 0 0 1993.4 565.6;" xml:space="preserve">
<g>
	<g>
		<path style="fill:#F33300;" d="M245.6,92.2v-4.4c2.9-0.6,4.6-2,5.8-3.3c0.6-0.8,1.2-1.6,1.5-2.4h4.2v47h-6.9V92.2H245.6z"/>
		<path style="fill:#F33300;" d="M266.8,107.8v-5.8c2.9-0.2,4.2-0.8,4.8-2.1c0.3-0.6,0.4-1.5,0.4-2.5s0-2.3,0-3.8c0-1.3,0-2.8-0.3-4
			c-0.3-1.2-0.8-2-1.9-2c-0.8,0-1.3,0.4-1.6,1.6c-0.3,1.3-0.4,3.3-0.4,6.4h-6.8c0-2.6,0.1-6.2,1.2-9.1c1.2-2.8,3.3-5,7.6-5
			s6.6,2.2,7.7,4.6c1.2,2.4,1.2,4.9,1.2,5.5c0,7-1.2,10.3-3.3,12.4l-0.1,0.1c3.3,2.6,4,7.5,4,12.9c0,0.2,0,0.6-0.1,1.3
			c-0.1,1.3-0.4,3.3-1.2,5.4c-0.8,2-2,3.9-4,5c-1,0.6-2.2,0.8-3.7,0.8c-4.4,0-6.6-2.2-7.8-5.1c-1.2-2.8-1.3-6.4-1.3-9h6.8
			c0,3.1,0.2,5.1,0.6,6.3c0.4,1.3,1,1.7,1.8,1.7c1.1,0,1.7-0.8,1.9-2c0.3-1.2,0.3-2.6,0.3-4c0-1.5,0-2.8,0.1-4
			c0-2.3-0.4-3.9-1.9-4.9c-0.8-0.4-1.9-0.8-3.4-0.8H266.8z"/>
		<path style="fill:#F33300;" d="M282.8,122h6.7v7.1h-6.7V122z"/>
		<path style="fill:#F33300;" d="M293.1,97v-3.3c0-3.1,0.4-6.2,1.8-8.4c1.3-2.2,3.6-3.7,7.4-3.7c3.5,0,5.9,1.3,7.3,3.4
			c1.4,2.1,1.9,5.1,1.9,8.3c0,4.8-1.8,10.5-4,15.8c-2.3,5.4-5,10.2-6.8,13.2h10.9v6.8h-18.8v-6.8c2.1-3.3,4-6.6,5.8-9.9
			c1.5-2.8,2.9-6,4-9.3c1.1-3.3,1.9-6.5,2-9.3c0-1.3-0.1-2.8-0.4-3.8c-0.3-1.1-0.9-1.9-1.9-1.9c-1,0-1.5,0.7-1.9,1.7
			c-0.3,1.1-0.4,2.5-0.4,4V97H293.1z"/>
	</g>
	<path style="fill:none;stroke:#F33300;stroke-width:2;stroke-miterlimit:100;stroke-dasharray:12,6;" d="M0.8,387.7
		c0,0,220.5-314.2,315-220.1S651.6,606.4,810,551.4c194.1-67.4,680.6-632.8,816.7-529.8c133.7,101.3,366.1,282.1,366.1,282.1"/>
	<g id="Ellipse_1">
		<g>
			<circle style="fill-rule:evenodd;clip-rule:evenodd;fill:#F33300;" cx="271.8" cy="148.6" r="10.5"/>
		</g>
	</g>
	<g>
		<path style="fill:#F33300;" d="M756.2,501.5v-3.3c0-3.1,0.4-6.2,1.8-8.4c1.3-2.2,3.6-3.7,7.4-3.7c3.5,0,5.9,1.3,7.3,3.4
			c1.4,2.1,1.9,5.1,1.9,8.3c0,4.8-1.8,10.5-4,15.8c-2.3,5.4-5,10.2-6.8,13.2h10.9v6.8H756v-6.8c2.1-3.3,4-6.6,5.8-9.9
			c1.5-2.8,2.9-6,4-9.3s1.9-6.5,2-9.3c0-1.3-0.1-2.8-0.4-3.8c-0.3-1.1-0.9-1.9-1.9-1.9c-1,0-1.5,0.7-1.9,1.7c-0.3,1.1-0.4,2.5-0.4,4
			v3.3H756.2z"/>
		<path style="fill:#F33300;" d="M778.8,526.5h6.7v7.1h-6.7V526.5z"/>
		<path style="fill:#F33300;" d="M788,496.7v-4.4c2.9-0.6,4.6-2,5.8-3.3c0.6-0.8,1.2-1.6,1.5-2.4h4.2v47h-6.9v-36.9H788z"/>
	</g>
	<g id="Ellipse_1_1_">
		<g>
			<circle style="fill-rule:evenodd;clip-rule:evenodd;fill:#F33300;" cx="778.3" cy="555.1" r="10.5"/>
		</g>
	</g>
	<g>
		<path style="fill:#F33300;" d="M1554.6,44.7v-4.4c2.9-0.6,4.6-2,5.8-3.3c0.6-0.8,1.2-1.6,1.5-2.4h4.2v47h-6.9V44.7H1554.6z"/>
		<path style="fill:#F33300;" d="M1579.3,41.4h-10.4v-6.8h17.4v6.9l-6.9,40.1h-7.2L1579.3,41.4z"/>
		<path style="fill:#F33300;" d="M1588.8,74.5h6.7v7.1h-6.7V74.5z"/>
		<path style="fill:#F33300;" d="M1598.9,44.2c0-1.1,0.1-3.6,1.3-6c1.2-2.2,3.4-4.2,7.7-4.2c4.2,0,6.5,2,7.7,4.2
			c1.2,2.3,1.3,4.9,1.3,6V71c0,1.7-0.1,4.5-1.3,6.8c-1.2,2.4-3.4,4.4-7.7,4.4s-6.5-2-7.7-4.4c-1.2-2.3-1.3-5.1-1.3-6.8V68h6.9
			c0,3.1,0.1,5.2,0.3,6.4s0.8,1.7,1.8,1.7c0.8,0,1.4-0.4,1.7-1.2c0.3-0.8,0.4-2.1,0.4-3.9v-8.8c-1.2,0.7-2.2,1.2-3.5,1.2
			c-3.6,0-5.5-1.9-6.5-4c-1-2.1-1.2-4.7-1.2-6V44.2z M1610.1,42.2c0-0.6-0.5-2.1-2.1-2.1c-1.5,0-2.1,1.5-2.1,2.1v13.6
			c0,0.6,0.6,2.1,2.1,2.1s2-1.2,2.1-1.9V42.2z"/>
	</g>
	<g id="Ellipse_1_2_">
		<g>
			<circle style="fill-rule:evenodd;clip-rule:evenodd;fill:#F33300;" cx="1591.3" cy="10.5" r="10.5"/>
		</g>
	</g>
</g>
<g>
</g>
<g>
</g>
<g>
</g>
<g>
</g>
<g>
</g>
<g>
</g>
<g>
</g>
<g>
</g>
<g>
</g>
<g>
</g>
<g>
</g>
<g>
</g>
<g>
</g>
<g>
</g>
<g>
</g>
</svg>
