<!-- Generator: Adobe Illustrator 18.0.0, SVG Export Plug-In  -->
<svg version="1.1"
	 xmlns="http://www.w3.org/2000/svg" xmlns:xlink="http://www.w3.org/1999/xlink" xmlns:a="http://ns.adobe.com/AdobeSVGViewerExtensions/3.0/"
	 x="0px" y="0px" preserveAspectRatio="xMinYMin meet" viewBox="0 0 1623 189" style="enable-background:new 0 0 1623 189;"
	 xml:space="preserve">
<defs>
</defs>
<g>
	<path style="fill:#FFFFFF;" d="M81.8,29.8c0-4.3,1.7-8.3,5-11.8c3.3-3.5,5-6.1,5-7.8c0-2-0.7-3.5-2.1-4.5s-3.5-1.5-6.3-1.5
		c-5.8,0-9.9,3.4-12.5,10.1C68.3,21.1,67,29.7,67,40l-0.5,26.3h28.3l-4.3,9.5h-24v77.8l0.2,11.5c0,6,0.5,9.9,1.5,11.8
		c1,1.8,3.9,3.1,8.6,3.8l8.9,0.3v4h-84v-4l6-0.3c4.8-0.5,7.8-1.7,8.8-3.5c1-1.8,1.5-5.8,1.5-12l0.3-11.5V75.8H0l4-9.5h14.3
		c0-3.3,0.1-6.9,0.4-10.6s0.4-6.5,0.4-8.1c0-11.8,6.8-22.7,20.4-32.6C53,5,68.3,0,85.5,0c11.4,0,21.4,2.4,30,7.1s13,11.8,13,21.1
		c0,6-2.5,11-7.4,15.1c-4.9,4.1-10.4,6.1-16.4,6.1s-11.3-1.8-15.9-5.4C84.1,40.5,81.8,35.8,81.8,29.8z"/>
	<path style="fill:#FFFFFF;" d="M252.7,184.8H187v-16c-3.8,6-8.5,10.6-14.1,13.8c-5.6,3.2-13.3,4.8-23.1,4.8
		c-11.5,0-21.7-3.4-30.5-10.3c-9-6.7-13.5-15.9-13.5-27.8V93.8l-0.3-10.3c0-4.5-0.7-7.6-2.1-9.4c-1.4-1.8-4.5-2.9-9.1-3.4l-7-0.5v-4
		H154V148l0.3,10.3c0,6.8,1.2,12,3.6,15.4c2.4,3.4,6,5.1,10.8,5.1c5.3,0,9.1-1.5,11.5-4.5s4.3-6.1,5.8-9.3V97.5L185.5,86
		c0-5.5-0.9-9.3-2.7-11.3s-5.4-3.3-10.9-4l-7.7-0.5v-4h70v91l0.3,10.3c0,4.5,0.7,7.6,2.1,9.4c1.4,1.8,4.5,2.9,9.1,3.4l7,0.5V184.8z"
		/>
	<path style="fill:#FFFFFF;" d="M331,67.8c-4.7,0-8.6,1.8-11.8,5.5c-3.2,3.7-5.6,8.2-7.4,13.5c-1.8,5.3-3,11.1-3.8,17.4
		s-1.1,12.3-1.1,18.1c0,15.2,2.5,28.4,7.6,39.6c5.1,11.3,14.1,16.9,27,16.9c9.2,0,17.2-2.9,24.1-8.6s12-13,15.6-21.9l3.8,2
		c-11.2,24.7-31.2,37-60.1,37c-19,0-35.2-5.6-48.6-16.9s-20-26.1-20-44.6c0-18.7,6.6-33.7,19.7-45c13.1-11.3,29.4-17,49-17
		c7.3,0,14.1,0.8,20.3,2.4c6.2,1.6,12,3.8,17.4,6.5c5.4,2.8,10.6,6.7,15.5,11.8c4.9,5.1,7.4,11,7.4,17.9c0,6.2-1.9,11.1-5.8,14.9
		s-9.5,5.6-17.1,5.6c-6.5,0-12.4-2.3-17.7-6.9c-5.3-4.6-7.9-9.8-7.9-15.6c0-4.5,0.9-8.8,2.8-13c1.8-4.2,2.8-7.7,2.8-10.5
		c0-2.7-1-4.8-3-6.5C337.5,68.6,334.7,67.8,331,67.8z"/>
	<path style="fill:#FFFFFF;" d="M451.2,131.4c8.8-9,17.6-18,26.4-27.2s14.9-15.8,18.3-20s5.1-7.3,5.1-9.5c0-1.3-0.5-2.3-1.6-2.9
		c-1.1-0.6-2.6-1-4.6-1.1l-8.5-0.5v-4h47.3v4c-1.7,0-3.3,0-4.9,0.1c-1.6,0.1-3.8,0.4-6.5,1s-5.1,1.4-6.9,2.5
		c-1.8,1.1-4.6,3.2-8.2,6.4c-3.6,3.2-6.7,6.1-9.3,8.7c-2.6,2.7-5,5.2-7.2,7.5c8.2,13.3,16.5,26.8,25,40.5s14.7,23.5,18.6,29.4
		c3.9,5.9,6.8,9.6,8.8,11.1c1.9,1.5,4.5,2.5,7.9,3l6,0.3v4h-84.7v-4l5-0.3c4.3,0,6.4-1.3,6.4-4c0-1.7-1.1-4.4-3.3-8.2
		c-2.2-3.8-5.7-9.4-10.3-16.7c-4.6-7.3-9.1-14.3-13.4-21l-4.7,5v18L452,165c0,6.5,0.5,10.7,1.4,12.6c0.9,1.9,3.7,2.9,8.3,2.9
		l4.7,0.3v4h-79.1v-4l5.8-0.3c4.8-0.5,7.8-1.7,8.8-3.5c1-1.8,1.5-5.8,1.5-12l0.3-11.5V30l-0.3-10.3c0-4.5-0.7-7.6-2.1-9.4
		c-1.4-1.8-4.5-2.9-9.1-3.4l-9.5-0.5v-4h69.3v112.3L451.2,131.4z"/>
	<path style="fill:#FFFFFF;" d="M694.5,65.5v-32L694,22c0-5.5-0.8-9.2-2.5-11c-1.6-1.8-5.2-3.1-10.6-3.8l-11.6-0.8v-4h73.5v154.8
		l0.3,10.3c0,4.5,0.8,7.6,2.4,9.4c1.6,1.8,4.6,2.9,9.1,3.4l8,0.5v4H695v-12.5c-1.8,3.3-4.8,6.7-8.9,10c-4.1,3.3-11.8,5-23.1,5
		c-16,0-29-5.6-39-16.8c-10-11.2-15-26.3-15-45.5c0-18.5,5-33.3,15-44.5c10-11.2,23-16.8,39-16.8c11.7,0,19.4,1.6,23.3,4.8
		c3.8,3.2,6.7,6.5,8.5,10L694.5,65.5z M693.7,83.5c-0.7-4.2-2.5-7.3-5.5-9.5c-3-2.2-6.5-3.3-10.5-3.3c-5.2,0-9,2.5-11.6,7.4
		c-2.6,4.9-4.3,10.5-5,16.8s-1.2,11.9-1.4,17c-0.2,5.1-0.3,9.8-0.3,14.1v11.3c0,3.2,0.4,8.7,1.1,16.5c0.8,7.8,2.4,14.3,5,19.3
		c2.6,5,6.5,7.5,11.9,7.5c9.2,0,14.5-4.4,16-13.3c0.3-3.8,0.6-10.6,0.8-20.4c0.2-9.8,0.3-17,0.3-21.9v-23
		C694.5,95,694.2,88.8,693.7,83.5z"/>
	<path style="fill:#FFFFFF;" d="M843.7,184.8h-81.3v-4l6-0.3c4.8-0.5,7.8-1.7,8.8-3.5c1-1.8,1.5-5.8,1.5-12l0.3-11.5V93.8l-0.3-10.3
		c-0.3-4-0.8-7-1.5-9c-0.7-2-3.7-3.3-9-3.8l-6.8-0.5v-4h65.8v87.3l0.3,11.5c0,6,0.5,10,1.5,11.9c1,1.9,3.9,3.1,8.8,3.6l6,0.3V184.8z
		 M778.2,24.5c0-6.5,2.4-12,7.2-16.6c4.8-4.6,10.5-6.9,17.2-6.9c6.9,0,12.7,2.2,17.5,6.6c4.8,4.4,7.2,10,7.2,16.9
		c0,6.7-2.4,12.3-7.2,16.9c-4.8,4.6-10.6,6.9-17.5,6.9c-6.7,0-12.4-2.3-17.2-6.9C780.6,36.8,778.2,31.2,778.2,24.5z"/>
	<path style="fill:#FFFFFF;" d="M978.1,172.5c3.9,0,6.7-2.5,8.3-7.4c1.6-4.9,2.3-10.8,2.3-17.7h3.5c0,14.7-2.6,24.4-7.9,29.1
		s-10,7.6-14.1,8.9c-4.2,1.3-9.5,1.9-16,1.9c-7.2,0-13.5-1.8-19.1-5.5c-5.6-3.7-9-8.6-10.1-14.8c-2.7,6.8-7.1,11.8-13.4,15.2
		s-14.4,5.1-24.4,5.1c-10.7,0-19.3-2.9-26-8.8c-6.7-5.8-10-13.9-10-24.3c0-8.3,2.1-15.1,6.3-20.2c4.2-5.1,8.4-8.2,12.8-9.4
		c4.3-1.2,11-2.2,20-3s15.6-1.8,19.9-2.9s7.3-2.3,9.1-3.5c1.8-1.3,2.8-3.4,2.8-6.4L921.7,86c0-6.5-0.8-11.2-2.5-14
		c-1.7-2.8-5.1-4.3-10.4-4.3c-3.3,0-6.1,0.8-8.3,2.3s-3.3,3.4-3.3,5.8c0,1.8,1.8,4.1,5.3,6.9c3.6,2.8,5.3,6.9,5.3,12.4
		c0,5.2-2.3,9.8-6.9,13.8s-12.1,6-22.4,6c-5.7,0-10.7-1.5-14.9-4.6c-4.3-3.1-6.4-7.2-6.4-12.4c0-10.4,5.8-18.7,17.4-24.9
		s25.4-9.3,41.5-9.3c13.5,0,26,2.8,37.3,8.4s17,14.3,17,26v57.5c0,5.4,0.5,9.5,1.5,12.3C972.8,171,974.8,172.5,978.1,172.5z
		 M922,165v-47.8l-0.7-0.3c-1.5,2-4.2,3.9-8.3,5.6s-6.8,3.5-8.4,5.1c-1.6,1.7-2.8,4.9-3.7,9.6s-1.4,9.6-1.4,14.6
		c0,7.5,0.6,13.5,1.7,18c1.2,4.5,3.8,6.8,7.9,6.8c3.1,0,5.9-1.3,8.3-3.8S921.3,167.8,922,165z"/>
	<path style="fill:#FFFFFF;" d="M1139.5,125c0,18.8-6.3,33.9-19,45.3c-12.7,11.3-28.8,17-48.3,17c-12.8,0-22.8-2.7-30-8
		c-7.2-5.3-13.1-10.7-17.8-16h-1.5c-2.3,2.3-4.8,5.6-7.4,9.9c-2.6,4.3-5,8.4-7.4,12.4h-3c0.2-6.7,0.3-13,0.4-18.9
		c0.1-5.9,0.2-13,0.4-21.4V30l-0.3-10.3c0-4.5-0.7-7.6-2.1-9.4c-1.4-1.8-4.5-2.9-9.1-3.4L985,6.5v-4h69.3V59l-0.5,19.8
		c1.8-3.3,4.8-6.7,8.8-10c4.1-3.3,11.7-5,22.9-5c15.8,0,28.8,5.6,38.9,16.9C1134.4,91.9,1139.5,106.7,1139.5,125z M1089,125.3
		c0-2.3-0.2-6.8-0.5-13.4c-0.3-6.6-0.5-10.6-0.5-12.1c0-8.8-1.3-16-4-21.4c-2.6-5.4-7-8.1-12.9-8.1c-5.1,0-8.9,1.5-11.2,4.4
		c-2.3,2.9-3.8,6.3-4.5,10c-0.7,3.8-1.1,9.2-1.2,16.3c-0.2,7.1-0.2,14.1-0.2,21.1v16.8c0,4.5,0.2,9.2,0.7,14
		c0,8.8,1.4,16.1,4.1,21.9s6.9,8.6,12.5,8.6c5.5,0,9.6-3,12.4-9s4.2-13.3,4.2-22c0-3.3,0.1-7.3,0.2-11.9
		C1088.4,135.8,1088.7,130.8,1089,125.3z"/>
	<path style="fill:#FFFFFF;" d="M1273.7,147.3c-4.7,12.5-12.2,22.3-22.5,29.4c-10.4,7.1-22.5,10.6-36.6,10.6
		c-19.7,0-35.9-5.5-48.6-16.4c-12.7-10.9-19-26-19-45.4c0-18,6.6-32.8,19.7-44.4c13.1-11.6,28.8-17.4,47.2-17.4
		c19.2,0,33.9,5.4,44.1,16.3c10.2,10.8,15.3,24.1,15.3,39.8h-76.8c0,6,0.5,12.1,1.4,18.4s2.6,12.3,5.2,18.1
		c2.6,5.8,6.2,10.5,10.9,14.1c4.7,3.6,10.6,5.4,17.8,5.4c10.2,0,18.3-2.9,24.3-8.6s10.5-13,13.7-21.6L1273.7,147.3z M1229.5,114.8
		c-0.2-1.8-0.3-4-0.4-6.5s-0.1-5.7-0.1-9.5c0-10.2-1.2-17.9-3.7-23.1c-2.5-5.3-6.8-7.9-12.9-7.9c-5.3,0-9,2.5-11,7.6
		c-2.1,5.1-3.5,12.9-4.3,23.4l-0.5,16H1229.5z"/>
	<path style="fill:#FFFFFF;" d="M1292.2,75.8h-17V69c5.7-1.5,11.6-4.3,17.8-8.4c6.2-4.1,12.1-8.8,17.7-14.3
		c5.6-5.4,10.3-10.7,14.1-15.9c3.8-5.2,6.7-9.8,8.7-14h7v49.8h32.5l-3.5,9.5h-29v68l0.5,12.8c0,7.2,1.6,12.6,4.7,16.3
		c3.1,3.7,7.1,5.5,11.9,5.5c6.5,0,11.2-2.7,14.2-8.1c3-5.4,4.5-11.5,4.5-18.1h3.5c0,9.3-2.7,17.5-8.2,24.6
		c-5.5,7.1-17.2,10.6-35.3,10.6c-11.6,0-21.8-3-30.7-9s-13.3-14.4-13.3-25.3V75.8z"/>
	<path style="fill:#FFFFFF;" d="M1507,147.3c-4.7,12.5-12.2,22.3-22.5,29.4c-10.4,7.1-22.5,10.6-36.6,10.6
		c-19.7,0-35.9-5.5-48.6-16.4c-12.7-10.9-19-26-19-45.4c0-18,6.6-32.8,19.7-44.4c13.1-11.6,28.8-17.4,47.2-17.4
		c19.2,0,33.9,5.4,44.1,16.3c10.2,10.8,15.3,24.1,15.3,39.8h-76.8c0,6,0.5,12.1,1.4,18.4s2.6,12.3,5.2,18.1
		c2.6,5.8,6.2,10.5,10.9,14.1c4.7,3.6,10.6,5.4,17.8,5.4c10.2,0,18.3-2.9,24.3-8.6s10.5-13,13.7-21.6L1507,147.3z M1462.7,114.8
		c-0.2-1.8-0.3-4-0.4-6.5s-0.1-5.7-0.1-9.5c0-10.2-1.2-17.9-3.7-23.1c-2.5-5.3-6.8-7.9-12.9-7.9c-5.3,0-9,2.5-11,7.6
		c-2.1,5.1-3.5,12.9-4.3,23.4l-0.5,16H1462.7z"/>
	<path style="fill:#FFFFFF;" d="M1520,133h3.3c4.3,13.5,8.7,23.4,13,29.8c4.3,6.3,9,11.1,14.1,14.3c5.1,3.2,11.3,4.8,18.6,4.8
		c4.2,0,7.8-1.1,10.8-3.4s4.5-5.4,4.5-9.4c0-5.2-1.2-9-3.5-11.5c-2.3-2.5-6-5.2-11-8.1c-5-2.9-10.8-6.2-17.4-9.8
		c-6.6-3.6-12.1-7.1-16.5-10.5c-4.4-3.4-7.8-7.3-10.3-11.6c-2.4-4.3-3.6-9.3-3.6-15c0-12.3,4.7-21.9,14-28.6
		c9.3-6.8,20.8-10.1,34.3-10.1c6.3,0,12.3,1.2,18,3.5c5.5,2.8,11.1,5.6,16.8,8.3c2.3,0,4.3-1.4,6-4.3c1.7-2.8,2.5-6.2,2.5-10h3.5
		v50.3h-3.3c-1.3-4-3-8.4-5-13.3c-2-4.8-4.9-9.7-8.6-14.6c-3.8-4.9-7.7-8.7-11.9-11.4c-4.2-2.7-9.5-4-16-4c-4.7,0-8.5,1.1-11.4,3.4
		c-2.9,2.3-4.4,5-4.4,8.4c0,3.8,1,6.8,3.1,9c2.1,2.2,5.1,4.5,9.1,6.9c4,2.4,9.5,5.5,16.4,9.3c6.9,3.8,13.1,7.5,18.6,11.1
		c5.5,3.7,10.1,8.2,13.8,13.6c3.7,5.4,5.5,11.6,5.5,18.6c0,12.8-4.9,22.5-14.6,29s-21.5,9.8-35.4,9.8c-7.2,0-14.2-1.5-21-4.5
		c-6.7-3.3-13.3-6.8-19.8-10.3c-2.2,0-4.1,1.8-5.8,5.3c-1.7,3.5-2.7,7.3-3,11.3h-3.5V133z"/>
</g>
</svg>
